<svg xmlns="http://www.w3.org/2000/svg" xml:space="preserve" width="297mm" height="210mm" version="1.1" style="shape-rendering:geometricPrecision; text-rendering:geometricPrecision; image-rendering:optimizeQuality; fill-rule:evenodd; clip-rule:evenodd"
viewBox="0 0 29700 21000"
 xmlns:xlink="http://www.w3.org/1999/xlink"
 xmlns:xodm="http://www.corel.com/coreldraw/odm/2003">
 <defs>
  <style type="text/css">
   <![CDATA[
    .fil0 {fill:white}
    .fil1 {fill:white;fill-rule:nonzero}
   ]]>
  </style>
 </defs>
 <g id="Camada_x0020_1">
  <metadata id="CorelCorpID_0Corel-Layer"/>
  <g id="_2309851563728">
   <path class="fil0" d="M14842.87 8163.1l-1288.42 -880.2c889.03,-1001.38 895.45,-2520.47 0,-3520.8l688.3 -470.22c330.07,-225.49 890.01,-211.94 1244.33,30.12l644.21 440.1c-895.45,1000.33 -889.03,2519.42 0,3520.8l-1288.42 880.2 1288.42 880.2c889.03,-1001.38 895.45,-2520.47 0,-3520.8l688.3 -470.22c330.07,-225.49 890.01,-211.94 1244.33,30.12l644.21 440.1c-895.45,1000.33 -889.03,2519.42 0,3520.8l-1288.42 880.2 -1288.42 -880.2 -1288.42 880.2 1288.42 880.2 -1288.42 880.2 -1288.42 -880.2 1288.42 -880.2 -1288.42 -880.2c-889.03,-1001.38 -895.45,-2520.47 0,-3520.8l-644.21 -440.1c-354.32,-242.06 -914.26,-255.61 -1244.33,-30.12l-688.3 470.22c895.45,1000.33 889.03,2519.42 0,3520.8l1288.42 880.2 2576.84 -1760.4z"/>
   <g>
    <g>
     <polygon class="fil1" points="5585.91,11683.8 5585.91,15204.81 4799.61,15204.81 4799.61,13765.74 3063.84,13765.74 3063.84,15204.81 2277.54,15204.81 2277.54,11683.8 3063.84,11683.8 3063.84,13028.9 4799.61,13028.9 4799.61,11683.8 "/>
     <path class="fil1" d="M9001.78 12757.43l0 2447.27 -746.54 0 0 -899.8c-52.74,283.45 -167.27,512.52 -343.61,687.21 -176.33,174.69 -386.45,262.03 -630.35,262.03 -187.88,0 -359.27,-55.21 -514.18,-165.62 -154.91,-110.42 -276.04,-262.86 -363.38,-457.32 -87.34,-194.46 -131.02,-410.35 -131.02,-647.66 0,-240.61 43.68,-458.15 131.02,-652.61 87.34,-194.46 208.47,-346.9 363.38,-457.32 154.91,-110.41 326.3,-165.62 514.18,-165.62 243.9,0 454.02,87.34 630.35,262.03 176.34,174.69 290.87,403.76 343.61,687.21l0 -899.8 746.54 0zm-1339.82 1804.55c168.1,0 309,-55.21 422.71,-165.62 113.71,-110.42 170.57,-248.02 170.57,-412.82 0,-164.8 -56.86,-303.23 -170.57,-415.3 -113.71,-112.06 -254.61,-168.09 -422.71,-168.09 -168.09,0 -308.17,56.03 -420.24,168.09 -112.06,112.07 -168.09,250.5 -168.09,415.3 0,164.8 56.03,302.4 168.09,412.82 112.07,110.41 252.15,165.62 420.24,165.62z"/>
     <path class="fil1" d="M10499.8 13622.63c52.74,-266.98 150.79,-486.16 294.17,-657.55 143.38,-171.39 323.83,-257.09 541.37,-257.09l0 855.31 -326.31 0c-154.91,0 -278.51,38.73 -370.8,116.18 -92.28,77.46 -138.43,196.94 -138.43,358.44l0 1166.78 -751.48 0 0 -2447.27 751.48 0 0 865.2z"/>
     <path class="fil1" d="M15834.36 13232.05c29.66,85.7 48.62,173.04 56.86,262.03 8.24,88.99 12.36,191.17 12.36,306.53l0 1404.09 -751.49 0 0 -1329.93c0,-138.43 -13.18,-240.61 -39.55,-306.53 -26.37,-69.21 -71.69,-123.6 -135.96,-163.15 -64.27,-39.55 -142.55,-59.33 -234.84,-59.33 -148.32,0 -273.57,48.62 -375.74,145.85 -102.18,97.23 -153.27,220.01 -153.27,368.33l0 1344.76 -751.48 0 0 -1329.93c0,-138.43 -13.18,-240.61 -39.55,-306.53 -26.37,-69.21 -71.69,-123.6 -135.96,-163.15 -64.27,-39.55 -142.55,-59.33 -234.84,-59.33 -148.32,0 -273.57,48.62 -375.74,145.85 -102.18,97.23 -153.27,220.01 -153.27,368.33l0 1344.76 -751.48 0 0 -2447.27 751.48 0 0 756.43c56.04,-240.61 164.8,-435.07 326.31,-583.39 161.5,-148.32 355.96,-222.48 583.39,-222.48 181.28,0 332.07,47.79 452.37,143.38 120.3,95.58 206.82,222.47 259.56,380.68 32.96,102.18 52.73,206 59.33,311.47 52.73,-247.2 160.68,-448.25 323.83,-603.16 163.15,-154.91 361.73,-232.37 595.75,-232.37 181.28,0 331.24,47.79 449.9,143.38 118.65,95.58 206,222.47 262.03,380.68z"/>
     <path class="fil1" d="M19181.43 12757.43l0 2447.27 -746.54 0 0 -899.8c-52.74,283.45 -167.27,512.52 -343.61,687.21 -176.33,174.69 -386.45,262.03 -630.35,262.03 -187.88,0 -359.27,-55.21 -514.18,-165.62 -154.91,-110.42 -276.04,-262.86 -363.38,-457.32 -87.34,-194.46 -131.02,-410.35 -131.02,-647.66 0,-240.61 43.68,-458.15 131.02,-652.61 87.34,-194.46 208.47,-346.9 363.38,-457.32 154.91,-110.41 326.3,-165.62 514.18,-165.62 243.9,0 454.02,87.34 630.35,262.03 176.34,174.69 290.87,403.76 343.61,687.21l0 -899.8 746.54 0zm-1339.82 1804.55c168.1,0 309,-55.21 422.71,-165.62 113.71,-110.42 170.57,-248.02 170.57,-412.82 0,-164.8 -56.86,-303.23 -170.57,-415.3 -113.71,-112.06 -254.61,-168.09 -422.71,-168.09 -168.09,0 -308.17,56.03 -420.24,168.09 -112.06,112.07 -168.09,250.5 -168.09,415.3 0,164.8 56.03,302.4 168.09,412.82 112.07,110.41 252.15,165.62 420.24,165.62z"/>
     <path class="fil1" d="M20679.45 13622.63c52.74,-266.98 150.79,-486.16 294.17,-657.55 143.38,-171.39 323.83,-257.09 541.37,-257.09l0 855.31 -326.31 0c-154.91,0 -278.51,38.73 -370.8,116.18 -92.28,77.46 -138.43,196.94 -138.43,358.44l0 1166.78 -751.48 0 0 -2447.27 751.48 0 0 865.2z"/>
     <path class="fil1" d="M23057.51 15253.47c-257.09,0 -490.28,-53.56 -699.58,-160.68 -209.29,-107.12 -373.27,-257.09 -491.92,-449.9 -118.66,-192.82 -177.99,-412.82 -177.99,-660.02 0,-250.5 59.33,-472.15 177.99,-664.97 118.65,-192.81 282.63,-342.78 491.92,-449.9 209.3,-107.12 442.49,-160.68 699.58,-160.68 257.08,0 490.27,53.56 699.57,160.68 209.29,107.12 373.27,257.09 491.92,449.9 118.66,192.82 177.99,414.47 177.99,664.97 0,247.2 -59.33,467.2 -177.99,660.02 -118.65,192.81 -282.63,342.78 -491.92,449.9 -209.3,107.12 -442.49,160.68 -699.57,160.68zm0 -692.16c168.09,0 304.87,-53.56 410.35,-160.68 105.47,-107.12 158.2,-248.02 158.2,-422.71 0,-174.68 -53.56,-314.76 -160.68,-420.24 -107.12,-105.47 -243.07,-158.2 -407.87,-158.2 -168.1,0 -305.71,52.73 -412.83,158.2 -107.12,105.48 -160.68,245.56 -160.68,420.24 0,174.69 53.56,315.59 160.68,422.71 107.12,107.12 244.73,160.68 412.83,160.68z"/>
     <polygon class="fil1" points="27408.21,12757.43 26696.28,15204.7 25272.41,15204.7 24590.14,12757.43 25391.07,12757.43 25989.29,15090.99 26641.89,12757.43 "/>
    </g>
    <path class="fil1" d="M8052.86 17869.85c-187.54,0 -358.07,-36.09 -511.59,-108.29 -153.51,-72.19 -275.08,-175.92 -364.7,-311.18 -89.62,-135.26 -134.43,-293.34 -134.43,-474.24 0,-179.24 44.81,-336.49 134.43,-471.75 89.62,-135.26 210.77,-238.99 363.46,-311.19 152.69,-72.19 322.8,-108.29 510.34,-108.29 167.62,0 336.07,32.36 505.36,97.09l0 308.69c-136.09,-79.66 -305.38,-119.49 -507.85,-119.49 -127.79,0 -244.38,24.48 -349.77,73.44 -105.39,48.96 -188.79,119.08 -250.19,210.36 -61.41,91.28 -92.11,198.33 -92.11,321.14 0,124.47 30.7,232.76 92.11,324.87 61.4,92.11 144.39,162.65 248.94,211.61 104.56,48.96 220.74,73.44 348.53,73.44 170.94,0 341.05,-39.01 510.34,-117.01l0 308.69c-149.37,61.41 -316.99,92.11 -502.87,92.11zm11361.93 -298.73l0 273.84 -1199.92 0 0 -1760.06 291.26 0 0 1486.22 908.66 0zm2703.54 -955.95c97.92,0 187.13,26.97 267.62,80.9 80.49,53.94 143.56,129.04 189.2,225.3 45.64,96.26 68.46,203.31 68.46,321.14 0,117.84 -22.82,224.47 -68.46,319.9 -45.64,95.43 -108.71,170.52 -189.2,225.29 -80.49,54.77 -169.7,82.15 -267.62,82.15 -117.83,0 -221.56,-37.75 -311.18,-113.27 -89.62,-75.51 -151.86,-174.67 -186.71,-297.49l0 385.87 -283.8 0 0 -1760.06 283.8 0 0 938.54c34.85,-122.82 97.09,-221.56 186.71,-296.25 89.62,-74.68 193.35,-112.02 311.18,-112.02zm-136.92 1008.23c68.05,0 129.46,-16.6 184.22,-49.79 54.77,-33.19 97.92,-78.83 129.46,-136.92 31.53,-58.09 47.29,-122.81 47.29,-194.18 0,-71.36 -15.76,-136.09 -47.29,-194.18 -31.54,-58.08 -74.69,-103.72 -129.46,-136.92 -54.76,-33.19 -116.17,-49.79 -184.22,-49.79 -68.04,0 -129.45,16.6 -184.22,49.79 -54.77,33.2 -97.92,78.84 -129.45,136.92 -31.53,58.09 -47.3,122.82 -47.3,194.18 0,71.37 15.77,136.09 47.3,194.18 31.53,58.09 74.68,103.73 129.45,136.92 54.77,33.19 116.18,49.79 184.22,49.79zm-1077.93 -983.34l0 1204.9 -283.8 0 0 -383.38c-34.85,122.82 -96.67,221.57 -185.46,296.25 -88.79,74.68 -192.11,112.02 -309.94,112.02 -99.58,0 -189.61,-27.38 -270.11,-82.15 -80.49,-54.77 -143.56,-129.86 -189.2,-225.29 -45.64,-95.43 -68.46,-202.06 -68.46,-319.9 0,-117.83 22.82,-224.88 68.46,-321.14 45.64,-96.26 108.71,-171.36 189.2,-225.3 80.5,-53.93 170.53,-80.9 270.11,-80.9 117.83,0 221.15,37.34 309.94,112.02 88.79,74.69 150.61,173.43 185.46,296.25l0 -383.38 283.8 0zm-644.77 983.34c68.05,0 129.45,-16.6 184.22,-49.79 54.77,-33.19 97.92,-78.83 129.45,-136.92 31.54,-58.09 47.3,-122.81 47.3,-194.18 0,-71.36 -15.76,-136.09 -47.3,-194.18 -31.53,-58.08 -74.68,-103.72 -129.45,-136.92 -54.77,-33.19 -116.17,-49.79 -184.22,-49.79 -68.04,0 -129.45,16.6 -184.22,49.79 -54.77,33.2 -97.92,78.84 -129.45,136.92 -31.53,58.09 -47.3,122.82 -47.3,194.18 0,71.37 15.77,136.09 47.3,194.18 31.53,58.09 74.68,103.73 129.45,136.92 54.77,33.19 116.18,49.79 184.22,49.79zm-3106.89 -278.82l-980.85 0c24.9,84.64 79.25,150.61 163.06,197.91 83.82,47.3 190.45,70.95 319.9,70.95 61.41,0 127.38,-5.81 197.91,-17.43 70.54,-11.61 135.68,-27.38 195.42,-47.3l0 266.38c-64.72,18.25 -129.03,31.94 -192.93,41.07 -63.9,9.13 -138.99,13.69 -225.3,13.69 -147.7,0 -278.4,-26.55 -392.09,-79.66 -113.68,-53.11 -202.47,-127.38 -266.37,-222.8 -63.89,-95.43 -95.84,-204.56 -95.84,-327.37 0,-121.15 27.38,-229.03 82.15,-323.63 54.77,-94.6 131.11,-168.45 229.03,-221.56 97.92,-53.11 209.11,-79.66 333.59,-79.66 121.15,0 229.86,27.38 326.12,82.15 96.26,54.77 171.36,131.53 225.29,230.27 53.94,98.75 80.91,210.36 80.91,334.84l0 82.15zm-637.3 -480.47c-96.26,0 -175.92,27.39 -238.99,82.15 -63.07,54.77 -101.24,128.63 -114.51,221.57l707 0c-13.27,-92.94 -51.86,-166.8 -115.76,-221.57 -63.89,-54.76 -143.14,-82.15 -237.74,-82.15zm-746.84 -224.05l-388.35 1204.9 -550.17 0 -370.93 -1204.9 303.71 0 346.04 1165.07 368.44 -1165.07 291.26 0zm-1817.3 0l283.8 0 0 1204.9 -283.8 0 0 -1204.9zm141.9 -191.69c-51.45,0 -95.01,-17.86 -130.69,-53.53 -35.68,-35.68 -53.53,-79.25 -53.53,-130.69 0,-48.13 17.85,-90.04 53.53,-125.72 35.68,-35.67 79.24,-53.53 130.69,-53.53 51.45,0 95.02,17.85 130.7,53.53 35.68,35.68 53.52,77.59 53.52,125.72 0,51.44 -17.84,95.01 -53.52,130.69 -35.68,35.68 -79.25,53.53 -130.7,53.53zm-846.41 448.11l0 450.59c0,76.34 20.33,135.67 60.99,177.99 40.66,42.33 102.48,63.49 185.47,63.49l136.92 0 0 256.41 -181.73 0c-146.05,0 -263.06,-36.93 -351.02,-110.78 -87.96,-73.85 -131.94,-178.83 -131.94,-314.92l0 -522.78 -246.46 0 0 -256.42 246.46 0 0 -555.16 281.31 0 0 555.16 383.38 0 0 256.42 -383.38 0zm-769.24 -256.42l0 1204.9 -283.8 0 0 -383.38c-34.85,122.82 -96.67,221.57 -185.46,296.25 -88.79,74.68 -192.11,112.02 -309.94,112.02 -99.58,0 -189.61,-27.38 -270.11,-82.15 -80.49,-54.77 -143.56,-129.86 -189.2,-225.29 -45.64,-95.43 -68.46,-202.06 -68.46,-319.9 0,-117.83 22.82,-224.88 68.46,-321.14 45.64,-96.26 108.71,-171.36 189.2,-225.3 80.5,-53.93 170.53,-80.9 270.11,-80.9 117.83,0 221.15,37.34 309.94,112.02 88.79,74.69 150.61,173.43 185.46,296.25l0 -383.38 283.8 0zm-644.77 983.34c68.05,0 129.45,-16.6 184.22,-49.79 54.77,-33.19 97.92,-78.83 129.45,-136.92 31.54,-58.09 47.3,-122.81 47.3,-194.18 0,-71.36 -15.76,-136.09 -47.3,-194.18 -31.53,-58.08 -74.68,-103.72 -129.45,-136.92 -54.77,-33.19 -116.17,-49.79 -184.22,-49.79 -68.04,0 -129.45,16.6 -184.22,49.79 -54.77,33.2 -97.92,78.84 -129.45,136.92 -31.53,58.09 -47.3,122.82 -47.3,194.18 0,71.37 15.77,136.09 47.3,194.18 31.53,58.09 74.68,103.73 129.45,136.92 54.77,33.19 116.18,49.79 184.22,49.79zm-868.82 -278.82l-980.85 0c24.9,84.64 79.25,150.61 163.06,197.91 83.82,47.3 190.45,70.95 319.9,70.95 61.41,0 127.38,-5.81 197.91,-17.43 70.54,-11.61 135.68,-27.38 195.42,-47.3l0 266.38c-64.72,18.25 -129.03,31.94 -192.93,41.07 -63.9,9.13 -138.99,13.69 -225.3,13.69 -147.7,0 -278.4,-26.55 -392.09,-79.66 -113.68,-53.11 -202.47,-127.38 -266.37,-222.8 -63.89,-95.43 -95.84,-204.56 -95.84,-327.37 0,-121.15 27.38,-229.03 82.15,-323.63 54.77,-94.6 131.11,-168.45 229.03,-221.56 97.92,-53.11 209.11,-79.66 333.59,-79.66 121.15,0 229.86,27.38 326.12,82.15 96.26,54.77 171.36,131.53 225.29,230.27 53.94,98.75 80.91,210.36 80.91,334.84l0 82.15zm-637.3 -480.47c-96.26,0 -175.92,27.39 -238.99,82.15 -63.07,54.77 -101.24,128.63 -114.51,221.57l707 0c-13.27,-92.94 -51.86,-166.8 -115.76,-221.57 -63.89,-54.76 -143.14,-82.15 -237.74,-82.15zm-1172.54 171.78c29.87,-122.82 83.4,-223.64 160.57,-302.47 77.17,-78.84 168.87,-118.25 275.09,-118.25l0 316.16 -97.09 0c-99.58,0 -180.9,27.38 -243.97,82.15 -63.07,54.77 -94.6,131.11 -94.6,229.03l0 602.45 -283.8 0 0 -1204.9 283.8 0 0 395.83z"/>
   </g>
  </g>
 </g>
</svg>
